<svg width="24" height="24" viewBox="0 0 24 24" fill="none" xmlns="http://www.w3.org/2000/svg">
<path d="M16.1 15.4991V15.4C16.1 14.8961 15.8998 14.4128 15.5435 14.0565C15.1872 13.7002 14.7039 13.5 14.2 13.5H6.4C5.89609 13.5 5.41282 13.7002 5.0565 14.0565C4.70018 14.4128 4.5 14.8961 4.5 15.4V15.4918C4.5021 15.5474 4.50598 15.6029 4.51163 15.6582C4.58761 16.3534 4.83447 17.019 5.23019 17.5956C5.96415 18.6568 7.42293 19.7 10.3 19.7C13.1775 19.7 14.6362 18.6565 15.3701 17.5952L16.1 15.4991ZM16.1 15.4991L16.0994 15.5042L16.0985 15.5181C16.0856 15.7284 16.0554 15.9372 16.0083 16.1425M16.1 15.4991L16.0083 16.1425M16.0083 16.1425C15.9167 16.5388 15.735 17.0665 15.3703 17.5949L16.0083 16.1425ZM15.8883 15.6506C15.8936 15.6057 15.8969 15.5607 15.8984 15.5155L15.8991 15.5026L15.9 15.4879V15.4732V15.4C15.9 14.9491 15.7209 14.5167 15.4021 14.1979C15.0833 13.8791 14.6509 13.7 14.2 13.7H6.4C5.94913 13.7 5.51673 13.8791 5.19792 14.1979C4.87911 14.5167 4.7 14.9491 4.7 15.4V15.472V15.4936V15.5146L4.70177 15.5356L4.71017 15.6352L4.71077 15.6423L4.71156 15.6494C4.78578 16.3059 5.01998 16.9342 5.39362 17.4792L5.3948 17.4809C6.0862 18.4803 7.47696 19.5 10.3 19.5C13.123 19.5 14.5138 18.4803 15.2052 17.4809L15.2063 17.4792C15.5799 16.9346 15.814 16.3067 15.8883 15.6506ZM15.8883 15.6506C15.8882 15.6511 15.8882 15.6517 15.8881 15.6523L15.3916 15.5932L15.8884 15.6493C15.8884 15.6497 15.8883 15.6501 15.8883 15.6506ZM8.03726 5.63726C7.43714 6.23738 7.1 7.05131 7.1 7.9C7.1 8.74869 7.43714 9.56263 8.03726 10.1627C8.63737 10.7629 9.45131 11.1 10.3 11.1C11.1487 11.1 11.9626 10.7629 12.5627 10.1627C13.1629 9.56263 13.5 8.74869 13.5 7.9C13.5 7.05131 13.1629 6.23738 12.5627 5.63726C11.9626 5.03714 11.1487 4.7 10.3 4.7C9.45131 4.7 8.63737 5.03714 8.03726 5.63726ZM7.89584 5.49584C8.53346 4.85821 9.39826 4.5 10.3 4.5C11.2017 4.5 12.0665 4.85821 12.7042 5.49584C13.3418 6.13346 13.7 6.99826 13.7 7.9C13.7 8.80174 13.3418 9.66654 12.7042 10.3042C12.0665 10.9418 11.2017 11.3 10.3 11.3C9.39826 11.3 8.53346 10.9418 7.89584 10.3042C7.25821 9.66654 6.9 8.80174 6.9 7.9C6.9 6.99826 7.25821 6.13346 7.89584 5.49584Z" fill="#FC9A1B" stroke="#FC9A1B"/>
<path d="M19.8748 8.69236C19.8198 8.63904 19.7548 8.5971 19.6835 8.56892C19.6123 8.54074 19.5362 8.52688 19.4595 8.52814C19.3829 8.5294 19.3073 8.54576 19.237 8.57626C19.1667 8.60677 19.1031 8.65084 19.0499 8.70594L17.4994 10.3082L17.0611 9.54907C17.0236 9.48133 16.9729 9.42174 16.9121 9.37379C16.8513 9.32584 16.7815 9.29049 16.7068 9.26979C16.6322 9.24909 16.5542 9.24347 16.4773 9.25325C16.4005 9.26302 16.3264 9.288 16.2593 9.32673C16.1922 9.36546 16.1335 9.41716 16.0866 9.47882C16.0398 9.54047 16.0056 9.61085 15.9862 9.68584C15.9668 9.76083 15.9626 9.83893 15.9737 9.91559C15.9848 9.99224 16.011 10.0659 16.0509 10.1323L16.8759 11.5612C16.9538 11.6965 17.0818 11.7936 17.2299 11.8333L17.3095 11.8486C17.3991 11.8596 17.49 11.8497 17.5752 11.8197C17.6603 11.7896 17.7373 11.7402 17.8001 11.6754L19.8881 9.51725C19.9414 9.46221 19.9833 9.39722 20.0115 9.32598C20.0397 9.25474 20.0536 9.17865 20.0523 9.10205C20.0511 9.02545 20.0348 8.94985 20.0043 8.87955C19.9739 8.80926 19.9299 8.74565 19.8748 8.69236Z" fill="#FC9A1B"/>
</svg>
