<svg width="24" height="24" viewBox="0 0 24 24" fill="none" xmlns="http://www.w3.org/2000/svg">
<mask id="path-1-inside-1_713_136" fill="white">
<path d="M2.40002 5.70002C2.40002 4.82481 2.7477 3.98544 3.36657 3.36657C3.98544 2.7477 4.82481 2.40002 5.70002 2.40002H18.3C19.1752 2.40002 20.0146 2.7477 20.6335 3.36657C21.2523 3.98544 21.6 4.82481 21.6 5.70002V13.2H20.4V9.60002H10.4484L12.4248 11.5752C12.5375 11.6879 12.6008 11.8407 12.6008 12C12.6008 12.1594 12.5375 12.3122 12.4248 12.4248C12.3122 12.5375 12.1594 12.6008 12 12.6008C11.8407 12.6008 11.6879 12.5375 11.5752 12.4248L9.60002 10.4484V15.6H10.9452C10.8488 15.8642 10.7997 16.1432 10.8 16.4244V16.8H5.70002C4.82481 16.8 3.98544 16.4523 3.36657 15.8335C2.7477 15.2146 2.40002 14.3752 2.40002 13.5V5.70002ZM3.60002 9.60002V13.5C3.60002 14.6592 4.54082 15.6 5.70002 15.6H8.40002V10.4484L6.42482 12.4248C6.31216 12.5375 6.15936 12.6008 6.00002 12.6008C5.84069 12.6008 5.68789 12.5375 5.57522 12.4248C5.46256 12.3122 5.39927 12.1594 5.39927 12C5.39927 11.8407 5.46256 11.6879 5.57522 11.5752L7.55162 9.60002H3.60002ZM5.12162 8.40002C4.85751 7.94249 4.75174 7.41059 4.82071 6.88682C4.88969 6.36305 5.12955 5.87667 5.50311 5.50311C5.87667 5.12955 6.36305 4.88969 6.88682 4.82071C7.41059 4.75174 7.94249 4.85751 8.40002 5.12162V3.60002H5.70002C5.14307 3.60002 4.60893 3.82127 4.2151 4.2151C3.82127 4.60893 3.60002 5.14307 3.60002 5.70002V8.40002H5.12162ZM7.20002 8.40002H8.40002V7.20002C8.40002 6.96269 8.32965 6.73068 8.19779 6.53334C8.06593 6.336 7.87852 6.18219 7.65924 6.09137C7.43997 6.00054 7.19869 5.97678 6.96592 6.02308C6.73314 6.06938 6.51932 6.18367 6.3515 6.3515C6.18367 6.51932 6.06938 6.73314 6.02308 6.96592C5.97678 7.19869 6.00054 7.43997 6.09137 7.65924C6.18219 7.87852 6.336 8.06593 6.53334 8.19779C6.73068 8.32965 6.96269 8.40002 7.20002 8.40002ZM9.60002 7.20002V8.40002H10.8C11.0374 8.40002 11.2694 8.32965 11.4667 8.19779C11.664 8.06593 11.8179 7.87852 11.9087 7.65924C11.9995 7.43997 12.0233 7.19869 11.977 6.96592C11.9307 6.73314 11.8164 6.51932 11.6486 6.3515C11.4807 6.18367 11.2669 6.06938 11.0341 6.02308C10.8014 5.97678 10.5601 6.00054 10.3408 6.09137C10.1215 6.18219 9.93412 6.336 9.80226 6.53334C9.6704 6.73068 9.60002 6.96269 9.60002 7.20002ZM12.8784 8.40002H20.4V5.70002C20.4 5.14307 20.1788 4.60893 19.7849 4.2151C19.3911 3.82127 18.857 3.60002 18.3 3.60002H9.60002V5.12162C10.0576 4.85751 10.5895 4.75174 11.1132 4.82071C11.637 4.88969 12.1234 5.12955 12.4969 5.50311C12.8705 5.87667 13.1104 6.36305 13.1793 6.88682C13.2483 7.41059 13.1425 7.94249 12.8784 8.40002ZM22.8 16.2V19.8C22.8 20.2774 22.6104 20.7353 22.2728 21.0728C21.9352 21.4104 21.4774 21.6 21 21.6H13.8C13.3226 21.6 12.8648 21.4104 12.5272 21.0728C12.1897 20.7353 12 20.2774 12 19.8V16.2C12 15.7226 12.1897 15.2648 12.5272 14.9272C12.8648 14.5897 13.3226 14.4 13.8 14.4H21C21.4774 14.4 21.9352 14.5897 22.2728 14.9272C22.6104 15.2648 22.8 15.7226 22.8 16.2ZM21.6 19.8V18.6C21.1226 18.6 20.6648 18.7897 20.3272 19.1272C19.9897 19.4648 19.8 19.9226 19.8 20.4H21C21 20.2409 21.0632 20.0883 21.1758 19.9758C21.2883 19.8632 21.4409 19.8 21.6 19.8ZM21 15.6H19.8C19.8 16.0774 19.9897 16.5353 20.3272 16.8728C20.6648 17.2104 21.1226 17.4 21.6 17.4V16.2C21.4409 16.2 21.2883 16.1368 21.1758 16.0243C21.0632 15.9118 21 15.7592 21 15.6ZM13.8 15.6C13.8 15.7592 13.7368 15.9118 13.6243 16.0243C13.5118 16.1368 13.3592 16.2 13.2 16.2V17.4C13.6774 17.4 14.1353 17.2104 14.4728 16.8728C14.8104 16.5353 15 16.0774 15 15.6H13.8ZM13.2 19.8C13.3592 19.8 13.5118 19.8632 13.6243 19.9758C13.7368 20.0883 13.8 20.2409 13.8 20.4H15C15 19.9226 14.8104 19.4648 14.4728 19.1272C14.1353 18.7897 13.6774 18.6 13.2 18.6V19.8ZM17.4 16.2C16.9226 16.2 16.4648 16.3897 16.1272 16.7272C15.7897 17.0648 15.6 17.5226 15.6 18C15.6 18.4774 15.7897 18.9353 16.1272 19.2728C16.4648 19.6104 16.9226 19.8 17.4 19.8C17.8774 19.8 18.3353 19.6104 18.6728 19.2728C19.0104 18.9353 19.2 18.4774 19.2 18C19.2 17.5226 19.0104 17.0648 18.6728 16.7272C18.3353 16.3897 17.8774 16.2 17.4 16.2Z"/>
</mask>
<path d="M2.40002 5.70002C2.40002 4.82481 2.7477 3.98544 3.36657 3.36657C3.98544 2.7477 4.82481 2.40002 5.70002 2.40002H18.3C19.1752 2.40002 20.0146 2.7477 20.6335 3.36657C21.2523 3.98544 21.6 4.82481 21.6 5.70002V13.2H20.4V9.60002H10.4484L12.4248 11.5752C12.5375 11.6879 12.6008 11.8407 12.6008 12C12.6008 12.1594 12.5375 12.3122 12.4248 12.4248C12.3122 12.5375 12.1594 12.6008 12 12.6008C11.8407 12.6008 11.6879 12.5375 11.5752 12.4248L9.60002 10.4484V15.6H10.9452C10.8488 15.8642 10.7997 16.1432 10.8 16.4244V16.8H5.70002C4.82481 16.8 3.98544 16.4523 3.36657 15.8335C2.7477 15.2146 2.40002 14.3752 2.40002 13.5V5.70002ZM3.60002 9.60002V13.5C3.60002 14.6592 4.54082 15.6 5.70002 15.6H8.40002V10.4484L6.42482 12.4248C6.31216 12.5375 6.15936 12.6008 6.00002 12.6008C5.84069 12.6008 5.68789 12.5375 5.57522 12.4248C5.46256 12.3122 5.39927 12.1594 5.39927 12C5.39927 11.8407 5.46256 11.6879 5.57522 11.5752L7.55162 9.60002H3.60002ZM5.12162 8.40002C4.85751 7.94249 4.75174 7.41059 4.82071 6.88682C4.88969 6.36305 5.12955 5.87667 5.50311 5.50311C5.87667 5.12955 6.36305 4.88969 6.88682 4.82071C7.41059 4.75174 7.94249 4.85751 8.40002 5.12162V3.60002H5.70002C5.14307 3.60002 4.60893 3.82127 4.2151 4.2151C3.82127 4.60893 3.60002 5.14307 3.60002 5.70002V8.40002H5.12162ZM7.20002 8.40002H8.40002V7.20002C8.40002 6.96269 8.32965 6.73068 8.19779 6.53334C8.06593 6.336 7.87852 6.18219 7.65924 6.09137C7.43997 6.00054 7.19869 5.97678 6.96592 6.02308C6.73314 6.06938 6.51932 6.18367 6.3515 6.3515C6.18367 6.51932 6.06938 6.73314 6.02308 6.96592C5.97678 7.19869 6.00054 7.43997 6.09137 7.65924C6.18219 7.87852 6.336 8.06593 6.53334 8.19779C6.73068 8.32965 6.96269 8.40002 7.20002 8.40002ZM9.60002 7.20002V8.40002H10.8C11.0374 8.40002 11.2694 8.32965 11.4667 8.19779C11.664 8.06593 11.8179 7.87852 11.9087 7.65924C11.9995 7.43997 12.0233 7.19869 11.977 6.96592C11.9307 6.73314 11.8164 6.51932 11.6486 6.3515C11.4807 6.18367 11.2669 6.06938 11.0341 6.02308C10.8014 5.97678 10.5601 6.00054 10.3408 6.09137C10.1215 6.18219 9.93412 6.336 9.80226 6.53334C9.6704 6.73068 9.60002 6.96269 9.60002 7.20002ZM12.8784 8.40002H20.4V5.70002C20.4 5.14307 20.1788 4.60893 19.7849 4.2151C19.3911 3.82127 18.857 3.60002 18.3 3.60002H9.60002V5.12162C10.0576 4.85751 10.5895 4.75174 11.1132 4.82071C11.637 4.88969 12.1234 5.12955 12.4969 5.50311C12.8705 5.87667 13.1104 6.36305 13.1793 6.88682C13.2483 7.41059 13.1425 7.94249 12.8784 8.40002ZM22.8 16.2V19.8C22.8 20.2774 22.6104 20.7353 22.2728 21.0728C21.9352 21.4104 21.4774 21.6 21 21.6H13.8C13.3226 21.6 12.8648 21.4104 12.5272 21.0728C12.1897 20.7353 12 20.2774 12 19.8V16.2C12 15.7226 12.1897 15.2648 12.5272 14.9272C12.8648 14.5897 13.3226 14.4 13.8 14.4H21C21.4774 14.4 21.9352 14.5897 22.2728 14.9272C22.6104 15.2648 22.8 15.7226 22.8 16.2ZM21.6 19.8V18.6C21.1226 18.6 20.6648 18.7897 20.3272 19.1272C19.9897 19.4648 19.8 19.9226 19.8 20.4H21C21 20.2409 21.0632 20.0883 21.1758 19.9758C21.2883 19.8632 21.4409 19.8 21.6 19.8ZM21 15.6H19.8C19.8 16.0774 19.9897 16.5353 20.3272 16.8728C20.6648 17.2104 21.1226 17.4 21.6 17.4V16.2C21.4409 16.2 21.2883 16.1368 21.1758 16.0243C21.0632 15.9118 21 15.7592 21 15.6ZM13.8 15.6C13.8 15.7592 13.7368 15.9118 13.6243 16.0243C13.5118 16.1368 13.3592 16.2 13.2 16.2V17.4C13.6774 17.4 14.1353 17.2104 14.4728 16.8728C14.8104 16.5353 15 16.0774 15 15.6H13.8ZM13.2 19.8C13.3592 19.8 13.5118 19.8632 13.6243 19.9758C13.7368 20.0883 13.8 20.2409 13.8 20.4H15C15 19.9226 14.8104 19.4648 14.4728 19.1272C14.1353 18.7897 13.6774 18.6 13.2 18.6V19.8ZM17.4 16.2C16.9226 16.2 16.4648 16.3897 16.1272 16.7272C15.7897 17.0648 15.6 17.5226 15.6 18C15.6 18.4774 15.7897 18.9353 16.1272 19.2728C16.4648 19.6104 16.9226 19.8 17.4 19.8C17.8774 19.8 18.3353 19.6104 18.6728 19.2728C19.0104 18.9353 19.2 18.4774 19.2 18C19.2 17.5226 19.0104 17.0648 18.6728 16.7272C18.3353 16.3897 17.8774 16.2 17.4 16.2Z" stroke="#FC9A1B" stroke-width="3" mask="url(#path-1-inside-1_713_136)"/>
</svg>
