<svg width="24" height="24" viewBox="0 0 24 24" fill="none" xmlns="http://www.w3.org/2000/svg">
<path d="M17.371 19.827L20.211 17.031L19.585 16.404L17.371 18.587L16.416 17.612L15.789 18.244L17.371 19.827ZM6.77 8.731H17.232V7.731H6.769L6.77 8.731ZM18 22.116C16.886 22.116 15.941 21.7277 15.165 20.951C14.3883 20.175 14 19.23 14 18.116C14 17.002 14.3883 16.0567 15.165 15.28C15.9417 14.5033 16.8867 14.1153 18 14.116C19.1133 14.1167 20.0587 14.5047 20.836 15.28C21.6133 16.0553 22.0013 17.0007 22 18.116C22 19.2293 21.612 20.1743 20.836 20.951C20.0587 21.7277 19.1133 22.116 18 22.116ZM4 20.769V5.616C4 5.168 4.15733 4.78667 4.472 4.472C4.78667 4.15733 5.168 4 5.616 4H18.385C18.8317 4 19.2127 4.15733 19.528 4.472C19.8427 4.78667 20 5.168 20 5.616V11.56C19.8373 11.5 19.676 11.4487 19.516 11.406C19.3553 11.3633 19.1833 11.33 19 11.306V5.616C19 5.462 18.936 5.32067 18.808 5.192C18.68 5.06333 18.5387 4.99933 18.384 5H5.616C5.462 5 5.32067 5.064 5.192 5.192C5.06333 5.32 4.99933 5.46133 5 5.616V19.05H11.344C11.3893 19.3233 11.448 19.5907 11.52 19.852C11.5927 20.1133 11.6937 20.3627 11.823 20.6L11.789 20.634L10.654 19.808L9.308 20.769L7.962 19.808L6.616 20.769L5.269 19.808L4 20.769ZM6.77 16.269H11.479C11.5163 16.0857 11.5623 15.914 11.617 15.754C11.6717 15.594 11.7357 15.4323 11.809 15.269H6.77V16.269ZM6.77 12.5H14.08C14.4067 12.242 14.7567 12.027 15.13 11.855C15.5033 11.6823 15.9023 11.564 16.327 11.5H6.769L6.77 12.5Z" fill="#FC9A1B"/>
</svg>
