<svg width="24" height="24" viewBox="0 0 24 24" fill="none" xmlns="http://www.w3.org/2000/svg">
<path d="M20.4 6.59998C20.4 5.80433 20.0839 5.04126 19.5213 4.47866C18.9587 3.91605 18.1957 3.59998 17.4 3.59998H6.60001C5.80436 3.59998 5.04129 3.91605 4.47869 4.47866C3.91608 5.04126 3.60001 5.80433 3.60001 6.59998V17.4C3.60001 18.1956 3.91608 18.9587 4.47869 19.5213C5.04129 20.0839 5.80436 20.4 6.60001 20.4H17.4C18.1957 20.4 18.9587 20.0839 19.5213 19.5213C20.0839 18.9587 20.4 18.1956 20.4 17.4V6.59998ZM4.80001 17.4V15.6H8.40001V19.2H6.60001L6.42721 19.1916C5.98181 19.1486 5.56839 18.9413 5.26755 18.6101C4.96671 18.2788 4.80003 17.8474 4.80001 17.4ZM14.4 15.6V19.2H9.60001V15.6H14.4ZM17.4 19.2H15.6V15.6H19.2V17.4L19.1916 17.574C19.1484 18.0192 18.9409 18.4323 18.6097 18.7329C18.2785 19.0335 17.8473 19.2 17.4 19.2ZM14.4 9.59998V14.4H9.60001V9.59998H14.4ZM15.6 9.59998H19.2V14.4H15.6V9.59998ZM14.4 4.79998V8.39998H9.60001V4.79998H14.4ZM15.6 4.79998H17.4L17.574 4.80838C18.0192 4.85161 18.4323 5.05904 18.7329 5.39025C19.0335 5.72145 19.2 6.1527 19.2 6.59998V8.39998H15.6V4.79998ZM8.40001 4.79998V8.39998H4.80001V6.59998L4.80841 6.42718C4.85136 5.98178 5.05867 5.56836 5.3899 5.26752C5.72114 4.96668 6.15255 4.8 6.60001 4.79998H8.40001ZM8.40001 9.59998V14.4H4.80001V9.59998H8.40001Z" fill="#FC9A1B"/>
</svg>
